<svg id="Layer_21" data-name="Layer 21" xmlns="http://www.w3.org/2000/svg" viewBox="0 0 867.4 360.55"><defs><style>.cls-1{fill:#e6e6e6;}.cls-1,.cls-13,.cls-14,.cls-15,.cls-3,.cls-4,.cls-7{stroke:#263852;}.cls-1,.cls-10,.cls-3,.cls-4,.cls-7,.cls-8{stroke-miterlimit:10;}.cls-11,.cls-13,.cls-2,.cls-6,.cls-7{fill:#fff;}.cls-3,.cls-4,.cls-8{fill:none;}.cls-13,.cls-14,.cls-15,.cls-3,.cls-4,.cls-7,.cls-8{stroke-width:1.5px;}.cls-3{stroke-dasharray:4 4;}.cls-4{stroke-dasharray:3.99 3.99;}.cls-10,.cls-5{fill:#39c2d7;}.cls-6{font-size:18px;}.cls-11,.cls-12,.cls-6{font-family:Arial-BoldMT, Arial;font-weight:700;}.cls-8{stroke:#273852;}.cls-12,.cls-9{fill:#273852;}.cls-10{stroke:#fff;stroke-width:2px;}.cls-11,.cls-12{font-size:20px;}.cls-13,.cls-14,.cls-15{stroke-linecap:round;stroke-linejoin:round;}.cls-14,.cls-16{fill:#263852;}.cls-15{fill:#e0e0e0;}</style></defs><rect class="cls-1" x="208.31" y="42.11" width="623.34" height="317.93" rx="20"/><rect class="cls-2" x="224.53" y="86.77" width="237.33" height="257.29" rx="12"/><rect class="cls-3" x="224.53" y="86.77" width="237.33" height="257.29" rx="12"/><rect class="cls-2" x="472.46" y="86.75" width="343.57" height="257.31" rx="12"/><rect class="cls-4" x="472.46" y="86.75" width="343.57" height="257.31" rx="12"/><rect class="cls-5" x="492.31" y="160.87" width="144" height="144" rx="4"/><text class="cls-6" transform="translate(506.71 267.99)">EC2 Instance</text><rect class="cls-7" x="534.83" y="192.85" width="26.34" height="26.34" rx="1"/><rect class="cls-7" x="551.13" y="202.23" width="26.34" height="26.34" rx="1"/><rect class="cls-7" x="567.44" y="211.62" width="26.34" height="26.34" rx="1"/><rect class="cls-5" x="652.62" y="160.87" width="144" height="144" rx="4"/><text class="cls-6" transform="translate(667.03 267.99)">EC2 Instance</text><rect class="cls-7" x="695.15" y="192.85" width="26.34" height="26.34" rx="1"/><rect class="cls-7" x="711.45" y="202.23" width="26.34" height="26.34" rx="1"/><rect class="cls-7" x="727.75" y="211.62" width="26.34" height="26.34" rx="1"/><circle class="cls-5" cx="343.19" cy="232.87" r="70.99"/><rect class="cls-7" x="292.82" y="210.35" width="26.34" height="45.04" rx="1"/><rect class="cls-7" x="355.36" y="180.89" width="26.34" height="26.34" rx="1"/><rect class="cls-7" x="355.36" y="219.7" width="26.34" height="26.34" rx="1"/><rect class="cls-7" x="355.36" y="258.51" width="26.34" height="26.34" rx="1"/><line class="cls-8" x1="319.89" y1="232.87" x2="343.99" y2="232.87"/><polygon class="cls-9" points="341.57 227.83 352.06 232.75 341.57 237.92 341.57 227.83"/><line class="cls-8" x1="319.89" y1="232.87" x2="344.78" y2="204.17"/><polygon class="cls-9" points="339.38 202.69 349.96 197.99 347 209.3 339.38 202.69"/><line class="cls-8" x1="319.17" y1="232.87" x2="344.53" y2="261.16"/><polygon class="cls-9" points="346.67 256 350.01 267.09 339.16 262.73 346.67 256"/><path class="cls-10" d="M1303.22,223a19.71,19.71,0,0,0,.61-4.76,20,20,0,0,0-20.17-19.8,20.21,20.21,0,0,0-11.27,3.44,28.69,28.69,0,0,0-54.21-2.5,26.44,26.44,0,0,0,4.39,52.59h76.18a14.79,14.79,0,0,0,4.47-29Z" transform="translate(-447.44 -180.29)"/><text class="cls-11" transform="translate(784.74 48.11)">VPC</text><text class="cls-12" transform="translate(238.34 114.79)">Public Subnets</text><text class="cls-12" transform="translate(488.28 114.79)">Private Subnets</text><path class="cls-13" d="M485.5,344.11h0c-10.32,0-18.68,7.56-18.68,16.86v9.82c0,9.3,8.36,22.2,18.68,22.21h0c10.32,0,18.69-12.9,18.69-22.21V361C504.19,351.66,495.82,344.11,485.5,344.11Z" transform="translate(-447.44 -180.29)"/><path class="cls-14" d="M475.07,347a2.38,2.38,0,0,1,.05-.26c1.16-4.12,8.05-5.07,15.72-3.61s11.28,4.61,16.94,3.75c.14,0,3,5-2.46,12.44l-1.13,6.81c-.29-4-1.2-5.95-1.68-6.64s-12.51.2-19.06-.07-6.86-5.59-6.86-5.59c-4.4-.59-4.48,5.75-5.17,7.64-1.05,2.86-1.54,4-4.6,4.27l-.65-1.31c-1.63-3.26-.49-10.12,1.62-13.1S472.13,348.77,475.07,347Z" transform="translate(-447.44 -180.29)"/><path class="cls-15" d="M469.49,399l3.35-2.16c3.64,3.44,8.05,5.72,12.81,5.73s9.18-2.29,12.82-5.73l3.36,2.16c11.76,0,21.29,7.38,21.29,19.14V422a3,3,0,0,1-3,3h-69a3,3,0,0,1-3-3v-3.9C448.19,406.35,457.73,399,469.49,399Z" transform="translate(-447.44 -180.29)"/><path class="cls-13" d="M541.38,350.65h0c-9.18,0-16.62,6.67-16.62,14.9v8.69c0,8.23,7.44,19.63,16.62,19.64h0c9.19,0,16.63-11.41,16.63-19.64v-8.69C558,357.32,550.57,350.65,541.38,350.65Z" transform="translate(-447.44 -180.29)"/><path class="cls-15" d="M526,400.39l3.19-2.05c3.45,3.27,7.64,5.44,12.16,5.44s8.73-2.17,12.19-5.44l3.19,2.05c11.18,0,20.24,7,20.24,18.19v3.71a2.83,2.83,0,0,1-2.83,2.83H508.61a2.83,2.83,0,0,1-2.83-2.83v-3.71C505.78,407.41,514.84,400.39,526,400.39Z" transform="translate(-447.44 -180.29)"/><path class="cls-16" d="M510.53,384.9c3.51-2.64,7.45-5,6.46-19a13.72,13.72,0,0,1-.12-2c0-13,11-23.52,24.52-23.57s24.51,10.58,24.51,23.57a13.72,13.72,0,0,1-.12,2c-1,14,3,16.34,6.46,19a2.19,2.19,0,0,1-1.66,3l-18.23,2.88a1.46,1.46,0,0,1-1.35-2.38,22.79,22.79,0,0,0,4.89-14.59c0-.74,0-1.47-.1-2.19h-.69c-6.87,0-13.09-5.18-15-11.77-1.52,4.88-6.59,8.5-12.68,8.71a25.58,25.58,0,0,0-.54,5.24,22.79,22.79,0,0,0,4.89,14.59,1.46,1.46,0,0,1-1.35,2.38l-18.23-2.88A2.19,2.19,0,0,1,510.53,384.9Z" transform="translate(-447.44 -180.29)"/><path class="cls-13" d="M597.09,344.24h0c-10.32,0-18.67,7.55-18.67,16.86v9.82c0,9.3,8.35,22.2,18.67,22.2h0c10.33,0,18.69-12.9,18.69-22.2V361.1C615.78,351.79,607.42,344.24,597.09,344.24Z" transform="translate(-447.44 -180.29)"/><path class="cls-14" d="M586.67,347.12a2.34,2.34,0,0,1,0-.26c1.17-4.12,8-5.07,15.72-3.61s11.29,4.61,16.94,3.75c.15,0,3,5-2.45,12.44l-1.14,6.8c-.28-4-1.2-5.94-1.67-6.63s-12.52.2-19.06-.07-6.87-5.59-6.87-5.59c-4.4-.59-4.47,5.75-5.17,7.64-1,2.86-1.54,4-4.59,4.27l-.66-1.31c-1.63-3.26-.49-10.12,1.63-13.1S583.73,348.9,586.67,347.12Z" transform="translate(-447.44 -180.29)"/><path class="cls-15" d="M581.08,399.1l3.36-2.16c3.64,3.44,8,5.72,12.8,5.73s9.18-2.29,12.82-5.73l3.36,2.16c11.76,0,21.3,7.38,21.3,19.14v3.9a3,3,0,0,1-3,3h-69a3,3,0,0,1-3-3v-3.9C559.79,406.48,569.32,399.1,581.08,399.1Z" transform="translate(-447.44 -180.29)"/></svg>